<?xml version="1.0" encoding="UTF-8"?>
<svg viewBox="0 0 744.09447 1052.362179" xmlns="http://www.w3.org/2000/svg">
 <defs>
  <filter id="g">
   <feGaussianBlur stdDeviation="2.925"/>
  </filter>
  <filter id="f">
   <feGaussianBlur stdDeviation="1.14231"/>
  </filter>
  <filter id="h" x="-.648" y="-.648" width="2.296" height="2.296">
   <feGaussianBlur stdDeviation="6.49124"/>
  </filter>
  <linearGradient id="e" x1="228.22" x2="458.72" y1="374.84" y2="700.84" gradientUnits="userSpaceOnUse">
   <stop stop-color="#fff" offset="0"/>
   <stop stop-color="#fff" stop-opacity="0" offset=".19813"/>
   <stop stop-color="#fff" stop-opacity="0" offset=".57631"/>
   <stop stop-color="#fff" offset=".81139"/>
   <stop stop-color="#fff" offset="1"/>
  </linearGradient>
  <linearGradient id="d" x1="217.5" x2="514.88" y1="81.03" y2="358.03" gradientUnits="userSpaceOnUse">
   <stop stop-color="#fff" stop-opacity=".78022" offset="0"/>
   <stop stop-color="#fff" stop-opacity="0" offset=".5"/>
   <stop stop-color="#fff" stop-opacity="0" offset=".75"/>
   <stop stop-color="#444343" stop-opacity=".71429" offset="1"/>
  </linearGradient>
  <linearGradient id="c" x1="226.22" x2="498.6" y1="109.03" y2="290.03" gradientUnits="userSpaceOnUse">
   <stop offset="0"/>
   <stop stop-color="#fff" stop-opacity="0" offset=".5"/>
   <stop stop-color="#fff" stop-opacity="0" offset=".75"/>
   <stop stop-color="#fff" offset="1"/>
  </linearGradient>
  <radialGradient id="b" cx="342.41" cy="209.03" r="44.754" gradientUnits="userSpaceOnUse">
   <stop stop-color="#787878" offset="0"/>
   <stop stop-color="#060000" offset="1"/>
  </radialGradient>
  <radialGradient id="a" cx="341.45" cy="579.81" r="135.34" gradientTransform="matrix(1.6155 -.78861 .91752 1.8795 -694.27 -530.59)" gradientUnits="userSpaceOnUse">
   <stop stop-color="#8c8c8c" offset="0"/>
   <stop offset="1"/>
  </radialGradient>
 </defs>
 <path d="m349.41 40.124c-100.59 0-183.91 83.312-183.91 183.91s83.312 183.91 183.91 183.91 183.91-83.312 183.91-183.91-83.312-183.91-183.91-183.91z" stroke="#666"/>
 <path d="m349.41 42.343c-99.364 0-181.69 82.323-181.69 181.69s82.323 181.69 181.69 181.69 181.69-82.323 181.69-181.69-82.323-181.69-181.69-181.69z" fill="#999" stroke="#666"/>
 <path d="m349.41 65.812c-86.344 0-158.22 71.875-158.22 158.22s71.875 158.22 158.22 158.22 158.22-71.875 158.22-158.22-71.875-158.22-158.22-158.22z"/>
 <path d="m349.41 89.187c-73.298 0-134.84 61.546-134.84 134.84s61.546 134.84 134.84 134.84 134.84-61.546 134.84-134.84-61.546-134.84-134.84-134.84z" fill="url(#a)"/>
 <path d="m393.55 224.03c0 24.379-19.763 44.141-44.141 44.141s-44.141-19.763-44.141-44.141 19.763-44.141 44.141-44.141 44.141 19.763 44.141 44.141z" fill="url(#b)"/>
 <path d="m349.31 205.25c0 6.6389-5.3819 12.021-12.021 12.021s-12.021-5.3819-12.021-12.021 5.3819-12.021 12.021-12.021 12.021 5.3819 12.021 12.021z" fill="#fff" filter="url(#h)"/>
 <path transform="matrix(1.0261 0 0 1.0261 25.708 -313.48)" d="m315.47 379.31c-78.861 0-144.53 65.67-144.53 144.53s65.67 144.53 144.53 144.53 144.53-65.67 144.53-144.53-65.67-144.53-144.53-144.53zm0 6.5312c75.331 0 138 62.669 138 138s-62.669 138-138 138-138-62.669-138-138 62.669-138 138-138z" fill="url(#e)" filter="url(#g)" stroke="#999" stroke-width=".92439"/>
 <path d="m350.41 60.843c-89.064 0-163.19 74.124-163.19 163.19s74.124 163.19 163.19 163.19 163.19-74.124 163.19-163.19-74.124-163.19-163.19-163.19zm0 4.9688c86.344 0 158.22 71.875 158.22 158.22s-71.875 158.22-158.22 158.22-158.22-71.875-158.22-158.22 71.875-158.22 158.22-158.22z" fill="url(#c)" filter="url(#f)"/>
 <path d="m349.19 41.343c-99.364 0-181.69 82.323-181.69 181.69s82.323 181.69 181.69 181.69 181.69-82.323 181.69-181.69-82.323-181.69-181.69-181.69zm0 4c97.183 0 177.72 80.505 177.72 177.69s-80.536 177.69-177.72 177.69-177.69-80.505-177.69-177.69 80.505-177.69 177.69-177.69z" fill="url(#d)"/>
 <g transform="matrix(1.0583 .62048 -.62048 1.0583 241.43 -510.28)">
  <path d="m308.69 346.28c-3.4416 0-6.2174 2.7758-6.2174 6.2174s2.7724 6.2514 6.2174 6.2514 6.2514-2.8064 6.2514-6.2514-2.8098-6.2174-6.2514-6.2174z" fill="#b3b3b3"/>
  <path d="m314.46 352.51c0 3.1843-2.5814 5.7657-5.7657 5.7657s-5.7657-2.5814-5.7657-5.7657 2.5814-5.7657 5.7657-5.7657 5.7657 2.5814 5.7657 5.7657z" fill="#4d4d4d"/>
  <path d="m308.10231,346.75305c-.12552.0127-.2507.0473-.37372.068v11.34758c.31297.0526.65735.10187.98527.10187s.63832-.0494.9513-.10187v-11.34758c-.31298-.0526-.62338-.068-.9513-.068-.19902,0-.41772-.0197-.61155,0z" fill="#333"/>
 </g>
 <g transform="matrix(1.0583 .62048 -.62048 1.0583 241.43 -170.87)">
  <path d="m308.69 346.28c-3.4416 0-6.2174 2.7758-6.2174 6.2174s2.7724 6.2514 6.2174 6.2514 6.2514-2.8064 6.2514-6.2514-2.8098-6.2174-6.2514-6.2174z" fill="#b3b3b3"/>
  <path d="m314.46 352.51c0 3.1843-2.5814 5.7657-5.7657 5.7657s-5.7657-2.5814-5.7657-5.7657 2.5814-5.7657 5.7657-5.7657 5.7657 2.5814 5.7657 5.7657z" fill="#4d4d4d"/>
  <path d="m308.10231,346.75305c-.12552.0127-.2507.0473-.37372.068v11.34758c.31297.0526.65735.10187.98527.10187s.63832-.0494.9513-.10187v-11.34758c-.31298-.0526-.62338-.068-.9513-.068-.19902,0-.41772-.0197-.61155,0z" fill="#333"/>
 </g>
 <g transform="matrix(.62048 -1.0583 1.0583 .62048 -384.9 332.01)">
  <path d="m308.69 346.28c-3.4416 0-6.2174 2.7758-6.2174 6.2174s2.7724 6.2514 6.2174 6.2514 6.2514-2.8064 6.2514-6.2514-2.8098-6.2174-6.2514-6.2174z" fill="#b3b3b3"/>
  <path d="m314.46 352.51c0 3.1843-2.5814 5.7657-5.7657 5.7657s-5.7657-2.5814-5.7657-5.7657 2.5814-5.7657 5.7657-5.7657 5.7657 2.5814 5.7657 5.7657z" fill="#4d4d4d"/>
  <path d="m308.10231,346.75305c-.12552.0127-.2507.0473-.37372.068v11.34758c.31297.0526.65735.10187.98527.10187s.63832-.0494.9513-.10187v-11.34758c-.31298-.0526-.62338-.068-.9513-.068-.19902,0-.41772-.0197-.61155,0z" fill="#333"/>
 </g>
 <g transform="matrix(.62048 -1.0583 1.0583 .62048 -45.493 332.01)">
  <path d="m308.69 346.28c-3.4416 0-6.2174 2.7758-6.2174 6.2174s2.7724 6.2514 6.2174 6.2514 6.2514-2.8064 6.2514-6.2514-2.8098-6.2174-6.2514-6.2174z" fill="#b3b3b3"/>
  <path d="m314.46 352.51c0 3.1843-2.5814 5.7657-5.7657 5.7657s-5.7657-2.5814-5.7657-5.7657 2.5814-5.7657 5.7657-5.7657 5.7657 2.5814 5.7657 5.7657z" fill="#4d4d4d"/>
  <path d="m308.10231,346.75305c-.12552.0127-.2507.0473-.37372.068v11.34758c.31297.0526.65735.10187.98527.10187s.63832-.0494.9513-.10187v-11.34758c-.31298-.0526-.62338-.068-.9513-.068-.19902,0-.41772-.0197-.61155,0z" fill="#333"/>
 </g>
</svg>
